<svg width="16" height="19" viewBox="0 0 16 19" fill="none" xmlns="http://www.w3.org/2000/svg">
<path d="M6.34517 7.67139C5.82355 7.67139 5.4126 8.12853 5.4126 8.68672C5.4126 9.24299 5.83317 9.70206 6.34517 9.70206C6.86583 9.70206 7.27678 9.24299 7.27678 8.68672C7.28736 8.12757 6.86583 7.67139 6.34517 7.67139ZM9.68279 7.67139C9.16117 7.67139 8.75022 8.12853 8.75022 8.68672C8.75022 9.24299 9.17079 9.70206 9.68279 9.70206C10.2035 9.70206 10.6144 9.24299 10.6144 8.68672C10.6134 8.12757 10.2035 7.67139 9.68279 7.67139Z" fill="white"/>
<path d="M14.1262 0H1.87381C1.62711 0.000631116 1.38294 0.0498481 1.15526 0.144841C0.927577 0.239834 0.720834 0.378742 0.546835 0.553634C0.372836 0.728527 0.234989 0.935979 0.141164 1.16415C0.047339 1.39231 -0.000626555 1.63672 6.17926e-06 1.88343V14.2446C6.17926e-06 15.2868 0.841148 16.128 1.87381 16.128H12.2418L11.7558 14.4351L12.927 15.5236L14.0328 16.5476L16 18.2857V1.88343C16.0006 1.63672 15.9527 1.39231 15.8588 1.16415C15.765 0.935979 15.6272 0.728527 15.4532 0.553634C15.2792 0.378742 15.0724 0.239834 14.8447 0.144841C14.6171 0.0498481 14.3729 0.000631116 14.1262 0ZM10.5961 11.9406C10.5961 11.9406 10.2669 11.5479 9.99362 11.1985C11.1909 10.8598 11.648 10.111 11.648 10.111C11.2727 10.3574 10.9166 10.5326 10.5961 10.6519C9.42935 11.1402 8.14448 11.2734 6.90238 11.0349C6.44341 10.9448 5.99368 10.8127 5.55886 10.6404C5.32953 10.5532 5.10666 10.45 4.89191 10.3314C4.864 10.3112 4.83705 10.3035 4.81011 10.2852C4.79569 10.2784 4.7829 10.2685 4.77257 10.2564C4.608 10.1659 4.51657 10.1024 4.51657 10.1024C4.51657 10.1024 4.95543 10.8338 6.11705 11.1812C5.84277 11.5277 5.504 11.9406 5.504 11.9406C3.48391 11.8761 2.71688 10.5508 2.71688 10.5508C2.71688 7.60685 4.03345 5.22105 4.03345 5.22105C5.35002 4.23266 6.60211 4.26057 6.60211 4.26057L6.69353 4.37028C5.04782 4.84667 4.28848 5.56848 4.28848 5.56848C4.28848 5.56848 4.49059 5.45876 4.82839 5.30381C5.8062 4.87458 6.58286 4.75524 6.90334 4.72733C6.9582 4.71867 7.00439 4.70905 7.05925 4.70905C8.64453 4.49541 10.2565 4.79669 11.6576 5.56848C11.6576 5.56848 10.9349 4.88324 9.38057 4.40782L9.50857 4.26153C9.50857 4.26153 10.7616 4.23362 12.0772 5.22201C12.0772 5.22201 13.3938 7.60781 13.3938 10.5518C13.3938 10.5508 12.6171 11.8761 10.5961 11.9406Z" fill="white"/>
</svg>
