<svg width="18" height="18" viewBox="0 0 18 18" fill="none" xmlns="http://www.w3.org/2000/svg">
<path d="M9 2.25C13.3492 2.25 16.875 4.998 16.875 8.38875C16.875 11.7788 13.3492 14.5267 9 14.5267C8.56693 14.527 8.13429 14.4994 7.70475 14.4443L4.39875 16.6065C4.023 16.8053 3.89025 16.7835 4.04475 16.2968L4.71375 13.5382C2.55375 12.4433 1.125 10.5458 1.125 8.38875C1.125 4.99875 4.65075 2.25 9 2.25ZM13.4303 8.295L14.5328 7.227C14.5964 7.16093 14.6319 7.07275 14.6317 6.98103C14.6316 6.88932 14.5959 6.80122 14.5322 6.73531C14.4684 6.66939 14.3815 6.6308 14.2898 6.62767C14.1982 6.62453 14.1089 6.6571 14.0408 6.7185L12.5947 8.118V6.9615C12.5947 6.86761 12.5575 6.77757 12.4911 6.71118C12.4247 6.6448 12.3346 6.6075 12.2407 6.6075C12.1469 6.6075 12.0568 6.6448 11.9904 6.71118C11.924 6.77757 11.8868 6.86761 11.8868 6.9615V8.87925C11.8735 8.93396 11.8735 8.99104 11.8868 9.04575V10.125C11.8868 10.2189 11.924 10.3089 11.9904 10.3753C12.0568 10.4417 12.1469 10.479 12.2407 10.479C12.3346 10.479 12.4247 10.4417 12.4911 10.3753C12.5575 10.3089 12.5947 10.2189 12.5947 10.125V9.10275L12.915 8.793L13.986 10.3177C14.0127 10.3558 14.0467 10.3882 14.086 10.4132C14.1253 10.4381 14.1691 10.4551 14.2149 10.4631C14.2607 10.4711 14.3077 10.47 14.3531 10.4599C14.3985 10.4497 14.4414 10.4307 14.4795 10.404C14.5176 10.3773 14.55 10.3433 14.5749 10.304C14.5999 10.2647 14.6168 10.2209 14.6248 10.1751C14.6328 10.1293 14.6317 10.0823 14.6216 10.0369C14.6115 9.99153 14.5925 9.94857 14.5658 9.9105L13.4303 8.29425V8.295ZM11.2118 9.738H10.1168V6.97275C10.1126 6.88178 10.0735 6.79592 10.0076 6.73303C9.94176 6.67014 9.85419 6.63504 9.76312 6.63504C9.67206 6.63504 9.58449 6.67014 9.51864 6.73303C9.45278 6.79592 9.41369 6.88178 9.4095 6.97275V10.092C9.4095 10.287 9.567 10.446 9.76275 10.446H11.2118C11.3056 10.446 11.3957 10.4087 11.4621 10.3423C11.5285 10.2759 11.5658 10.1859 11.5658 10.092C11.5658 9.99811 11.5285 9.90807 11.4621 9.84168C11.3957 9.7753 11.3056 9.738 11.2118 9.738ZM6.819 8.919L7.341 7.63875L7.8195 8.919H6.819ZM8.71125 9.285L8.71275 9.273C8.71257 9.18382 8.67853 9.09803 8.6175 9.033L7.833 6.933C7.80011 6.83293 7.73747 6.74527 7.65344 6.68175C7.56941 6.61822 7.468 6.58185 7.36275 6.5775C7.25673 6.57703 7.15308 6.60886 7.06559 6.66875C6.97811 6.72864 6.91093 6.81375 6.873 6.91275L5.62725 9.969C5.60967 10.012 5.60074 10.0581 5.60097 10.1046C5.6012 10.1511 5.61058 10.1971 5.62858 10.24C5.64658 10.2828 5.67285 10.3217 5.70589 10.3544C5.73893 10.3872 5.77808 10.413 5.82113 10.4306C5.86417 10.4482 5.91025 10.4571 5.95674 10.4569C6.00323 10.4567 6.04922 10.4473 6.09209 10.4293C6.13496 10.4113 6.17386 10.385 6.20657 10.352C6.23928 10.3189 6.26517 10.2798 6.28275 10.2368L6.53025 9.627H8.08275L8.307 10.227C8.32225 10.2718 8.34634 10.3132 8.37785 10.3485C8.40936 10.3839 8.44765 10.4126 8.49045 10.4329C8.53325 10.4532 8.57969 10.4647 8.62701 10.4667C8.67434 10.4688 8.72159 10.4613 8.76597 10.4447C8.81035 10.4281 8.85095 10.4028 8.88537 10.3703C8.91979 10.3377 8.94733 10.2986 8.96635 10.2552C8.98538 10.2119 8.99551 10.1651 8.99613 10.1177C8.99676 10.0704 8.98787 10.0234 8.97 9.9795L8.71125 9.285ZM6.21975 6.9765C6.21975 6.88274 6.18256 6.79282 6.11633 6.72645C6.05011 6.66008 5.96026 6.6227 5.8665 6.6225H3.43275C3.33886 6.6225 3.24882 6.6598 3.18243 6.72618C3.11605 6.79257 3.07875 6.88261 3.07875 6.9765C3.07875 7.07039 3.11605 7.16043 3.18243 7.22682C3.24882 7.2932 3.33886 7.3305 3.43275 7.3305H4.30275V10.1325C4.30275 10.2264 4.34005 10.3164 4.40643 10.3828C4.47282 10.4492 4.56286 10.4865 4.65675 10.4865C4.75064 10.4865 4.84068 10.4492 4.90707 10.3828C4.97345 10.3164 5.01075 10.2264 5.01075 10.1325V7.3305H5.86575C5.95964 7.3305 6.04968 7.2932 6.11607 7.22682C6.18245 7.16043 6.21975 7.07039 6.21975 6.9765Z" fill="white"/>
</svg>
