<svg width="16" height="16" viewBox="0 0 16 16" fill="none" xmlns="http://www.w3.org/2000/svg">
<path fill-rule="evenodd" clip-rule="evenodd" d="M16 8C16 12.418 12.418 16 8 16C3.582 16 0 12.418 0 8C0 3.582 3.582 0 8 0C12.418 0 16 3.582 16 8ZM13.1253 7.372C13.2547 7.55667 13.328 7.77467 13.336 8C13.3395 8.22044 13.2805 8.43737 13.1658 8.62567C13.0511 8.81397 12.8855 8.96594 12.688 9.064C12.6973 9.18133 12.6973 9.29867 12.688 9.416C12.688 11.208 10.6 12.664 8.024 12.664C5.448 12.664 3.36 11.208 3.36 9.416C3.35099 9.29884 3.35099 9.18116 3.36 9.064C3.20745 8.99259 3.07217 8.88899 2.96346 8.76033C2.85475 8.63166 2.77519 8.48099 2.73025 8.31865C2.68531 8.15632 2.67605 7.98618 2.70311 7.81993C2.73018 7.65368 2.79292 7.49526 2.88702 7.35556C2.98113 7.21586 3.10437 7.0982 3.24827 7.01065C3.39218 6.92311 3.55333 6.86777 3.72065 6.84842C3.88798 6.82908 4.05751 6.8462 4.21759 6.89861C4.37767 6.95101 4.5245 7.03746 4.648 7.152C5.56982 6.52682 6.65431 6.18479 7.768 6.168L8.36 3.392C8.36665 3.35986 8.37961 3.32937 8.39813 3.30227C8.41665 3.27518 8.44037 3.25204 8.4679 3.23418C8.49543 3.21632 8.52624 3.2041 8.55852 3.19823C8.59081 3.19237 8.62395 3.19297 8.656 3.2L10.616 3.592C10.7117 3.42755 10.8629 3.3026 11.0425 3.23958C11.222 3.17656 11.4181 3.1796 11.5956 3.24815C11.7731 3.3167 11.9204 3.44627 12.011 3.6136C12.1015 3.78094 12.1295 3.97508 12.0898 4.16118C12.0502 4.34728 11.9455 4.51315 11.7946 4.62901C11.6436 4.74488 11.4563 4.80315 11.2663 4.79338C11.0763 4.7836 10.896 4.70641 10.7577 4.57567C10.6195 4.44492 10.5324 4.26919 10.512 4.08L8.8 3.72L8.28 6.216C9.38016 6.2396 10.4499 6.58137 11.36 7.2C11.4815 7.08319 11.6268 6.99408 11.786 6.93878C11.9452 6.88348 12.1145 6.86331 12.2823 6.87965C12.45 6.89599 12.6122 6.94846 12.7577 7.03345C12.9033 7.11844 13.0287 7.23394 13.1253 7.372ZM5.47067 8.35533C5.41227 8.44271 5.37166 8.54073 5.35115 8.64379C5.33063 8.74686 5.33062 8.85296 5.35111 8.95604C5.3925 9.1642 5.51488 9.3474 5.69133 9.46533C5.86779 9.58327 6.08387 9.62627 6.29204 9.58489C6.39511 9.5644 6.49314 9.52381 6.58052 9.46543C6.66791 9.40706 6.74294 9.33204 6.80133 9.24467C6.91927 9.06821 6.96227 8.85213 6.92089 8.64397C6.87951 8.4358 6.75712 8.2526 6.58067 8.13467C6.40421 8.01673 6.18813 7.97373 5.97997 8.01511C5.7718 8.05649 5.5886 8.17888 5.47067 8.35533ZM8.008 11.616C8.718 11.6453 9.41667 11.46 9.984 11.032C10.0264 10.9906 10.0507 10.9341 10.0514 10.8748C10.0522 10.8156 10.0294 10.7584 9.988 10.716C9.96751 10.695 9.94309 10.6782 9.91612 10.6666C9.88915 10.6551 9.86017 10.6489 9.83083 10.6486C9.77157 10.6478 9.71444 10.6706 9.672 10.712C9.18649 11.0603 8.59664 11.2324 8 11.2C7.40409 11.2266 6.81698 11.0488 6.336 10.696C6.29455 10.662 6.24193 10.6446 6.18837 10.6472C6.13481 10.6499 6.08415 10.6723 6.04623 10.7102C6.00832 10.7481 5.98586 10.7988 5.98323 10.8524C5.9806 10.9059 5.99798 10.9586 6.032 11C6.59958 11.4277 7.29791 11.6454 8.008 11.616ZM9.39533 9.49733C9.52733 9.58533 9.674 9.664 9.832 9.664C9.9405 9.66527 10.0481 9.64443 10.1483 9.60276C10.2485 9.56108 10.3392 9.49945 10.4148 9.4216C10.4904 9.34376 10.5493 9.25134 10.588 9.14997C10.6268 9.04861 10.6444 8.94042 10.64 8.832C10.6399 8.69381 10.6041 8.558 10.536 8.43778C10.4678 8.31756 10.3697 8.21705 10.2511 8.14603C10.1326 8.07502 9.99769 8.03591 9.85954 8.03254C9.7214 8.02916 9.58473 8.06163 9.46286 8.12677C9.34099 8.19192 9.23808 8.28752 9.16414 8.40426C9.09021 8.521 9.04777 8.65491 9.04097 8.79293C9.03417 8.93095 9.06324 9.06838 9.12534 9.19182C9.18744 9.31527 9.28046 9.42052 9.39533 9.49733Z" fill="white"/>
</svg>
